Coordinates
version=1
nRows=54
nColumns=12
inDegrees=yes

Units are S.I. units (second, meters, Newtons, ...)
Angles are in degrees

endheader
time	SC_y	SC_z	SC_x	AC_y	AC_z	AC_x	GH_y	GH_z	GH_yy	EL_x	PS_y
       0.0              -59.24          21.11          26.76          43.99         -12.57          10.51         -121.5          45.47           67.0          112.1          130.7
    0.0367              -59.24          21.11          26.76          43.99         -12.57          10.51         -121.4          45.47           67.0          112.1          130.7
   0.07339              -59.23          21.12          26.76          43.99         -12.57          10.52         -121.4          45.46           67.0          112.1          130.7
    0.1101              -59.23          21.12          26.76          43.99         -12.57          10.52         -121.4          45.46           67.0          112.1          130.7
    0.1468              -59.22          21.12          26.76          43.99         -12.57          10.52         -121.3          45.46           67.0          112.1          130.7
    0.1835              -59.22          21.12          26.77          43.99         -12.57          10.52         -121.3          45.45          66.99          112.1          130.7
    0.2202              -59.21          21.12          26.77          43.99         -12.57          10.52         -121.2          45.45          66.99          112.1          130.7
    0.2569               -59.2          21.13          26.77           44.0         -12.57          10.52         -121.2          45.45          66.99          112.1          130.6
    0.2936               -59.2          21.13          26.77           44.0         -12.57          10.53         -121.1          45.44          66.99          112.1          130.6
    0.3303              -59.19          21.13          26.77           44.0         -12.57          10.53         -121.0          45.44          66.99          112.1          130.6
     0.367              -59.18          21.14          26.78           44.0         -12.57          10.53         -121.0          45.43          66.99          112.1          130.6
    0.4037              -59.18          21.14          26.78           44.0         -12.57          10.53         -120.9          45.43          66.99          112.1          130.6
    0.4404              -59.17          21.14          26.78          44.01         -12.57          10.54         -120.8          45.42          66.99          112.1          130.5
    0.4771              -59.16          21.15          26.78          44.01         -12.57          10.54         -120.7          45.42          66.99          112.1          130.5
    0.5138              -59.15          21.15          26.79          44.01         -12.57          10.54         -120.6          45.41          66.99          112.1          130.5
    0.5504              -59.14          21.15          26.79          44.02         -12.57          10.54         -120.5           45.4          66.99          112.1          130.5
    0.5871              -59.12          21.16          26.79          44.02         -12.57          10.55         -120.4           45.4          66.99          112.0          130.4
    0.6238              -59.11          21.17           26.8          44.02         -12.57          10.55         -120.3          45.39          66.99          112.0          130.4
    0.6605               -59.1          21.17           26.8          44.03         -12.57          10.56         -120.2          45.38          66.99          112.0          130.3
    0.6972              -59.08          21.18          26.81          44.03         -12.57          10.56         -120.0          45.37          66.99          112.0          130.3
    0.7339              -59.06          21.19          26.81          44.04         -12.58          10.57         -119.9          45.36          66.99          112.0          130.3
    0.7706              -59.05          21.19          26.82          44.04         -12.58          10.57         -119.7          45.35          66.99          112.0          130.2
    0.8073              -59.02           21.2          26.82          44.05         -12.58          10.58         -119.5          45.33          66.98          112.0          130.1
     0.844               -59.0          21.21          26.83          44.05         -12.58          10.59         -119.3          45.32          66.98          112.0          130.1
    0.8807              -58.98          21.22          26.84          44.06         -12.58          10.59         -119.0           45.3          66.98          112.0          130.0
    0.9174              -58.95          21.23          26.85          44.07         -12.58           10.6         -118.8          45.29          66.98          111.9          129.9
    0.9541              -58.92          21.25          26.86          44.08         -12.58          10.61         -118.5          45.27          66.98          111.9          129.8
    0.9908              -58.88          21.26          26.87          44.09         -12.59          10.62         -118.1          45.24          66.98          111.9          129.7
     1.028              -58.84          21.28          26.88           44.1         -12.59          10.63         -117.8          45.22          66.97          111.9          129.6
     1.064              -58.79           21.3           26.9          44.11         -12.59          10.65         -117.3          45.19          66.97          111.8          129.5
     1.101              -58.74          21.32          26.91          44.13         -12.59          10.66         -116.8          45.16          66.97          111.8          129.4
     1.138              -58.68          21.35          26.93          44.15          -12.6          10.68         -116.3          45.12          66.96          111.8          129.2
     1.174              -58.61          21.38          26.95          44.17          -12.6           10.7         -115.6          45.07          66.96          111.7          129.0
     1.211              -58.53          21.41          26.98          44.19          -12.6          10.73         -114.9          45.02          66.96          111.7          128.8
     1.248              -58.43          21.45          27.01          44.22         -12.61          10.76         -114.0          44.96          66.95          111.6          128.5
     1.284              -58.32           21.5          27.04          44.25         -12.62          10.79         -113.0          44.89          66.94          111.6          128.2
     1.321              -58.19          21.55          27.08          44.29         -12.62          10.83         -111.7          44.81          66.94          111.5          127.8
     1.358              -58.03          21.62          27.13          44.34         -12.63          10.88         -110.2          44.71          66.93          111.4          127.4
     1.394              -57.83           21.7          27.19          44.39         -12.64          10.94         -108.5          44.59          66.92          111.3          126.9
     1.431               -57.6           21.8          27.26          44.46         -12.66          11.01         -106.3          44.44           66.9          111.1          126.2
     1.468              -57.31          21.92          27.35          44.54         -12.67          11.09         -103.6          44.26          66.89          110.9          125.4
     1.505              -56.94          22.07          27.46          44.65         -12.69           11.2         -100.2          44.03          66.87          110.7          124.4
     1.541              -56.49          22.27           27.6          44.78         -12.72          11.34         -95.95          43.75          66.84          110.4          123.2
     1.578              -55.91          22.51          27.78          44.95         -12.75          11.52         -90.56          43.39          66.81          110.1          121.6
     1.615              -55.16          22.82          28.01          45.16         -12.79          11.74         -83.66          42.92          66.77          109.6          119.5
     1.651              -54.21          23.22           28.3          45.44         -12.84          12.03          -74.8          42.32          66.72          109.0          116.9
     1.688              -52.99          23.73          28.68          45.79         -12.91          12.39         -63.49          41.56          66.65          108.3          113.5
     1.725              -51.45          24.38          29.15          46.23         -12.99          12.86         -49.26           40.6          66.56          107.3          109.3
     1.761              -49.58          25.16          29.72          46.77          -13.1          13.42         -31.93          39.43          66.46          106.2          104.2
     1.798              -47.41          26.07          30.39           47.4         -13.22          14.07         -11.84          38.08          66.34          104.8          98.21
     1.835              -45.07          27.06          31.11          48.07         -13.35          14.77          9.921          36.61          66.21          103.4          91.76
     1.872              -42.72          28.04          31.82          48.75         -13.48          15.48          31.68          35.15          66.08          101.9           85.3
     1.908              -40.56          28.95          32.49          49.38         -13.59          16.13          51.77          33.79          65.96          100.6          79.34
     1.945              -38.69          29.73          33.06          49.92          -13.7          16.69          69.11          32.63          65.85          99.44           74.2
